<svg id="Layer_1" data-name="Layer 1" xmlns="http://www.w3.org/2000/svg" viewBox="0 0 750.78 750.78"><defs><style>.cls-1{fill:#dff5f0;}.cls-1,.cls-2{stroke:#fff;stroke-miterlimit:3.13;stroke-width:0.78px;}.cls-2{fill:#109c7b;}.cls-3{fill:#3b3b3c;}</style></defs><g id="SVGRepo_iconCarrier" data-name="SVGRepo iconCarrier"><path class="cls-1" d="M25,400c0,207.11,167.89,375,375,375S775,607.11,775,400,607.11,25,400,25,25,192.89,25,400Z" transform="translate(-24.61 -24.61)"/><path class="cls-2" d="M565,550c-20,0-40-10-55-25l-55-70H340l-30,50c-15,25-40,45-70,45-45,0-80-35-80-80V450l20-130c5-55,45-95,100-95,25,0,55,10,70,30,20,0,70-5,100,0,20-20,45-25,70-25,40,0,75,25,90,65v10l30,140c0,5,5,15,5,25C645,510,610,550,565,550Z" transform="translate(-24.61 -24.61)"/><path class="cls-3" d="M560,360c-10,0-15-10-15-15s5-15,15-15,15,10,15,15S570,360,560,360Zm-85,0c-10,0-15-10-15-15s5-15,15-15,15,10,15,15S485,360,475,360Zm40,45c-5,0-15-5-15-15s5-15,15-15,15,10,15,15S525,405,515,405Zm0-90c-5,0-15-5-15-15s5-15,15-15,15,10,15,15S525,315,515,315ZM270,325H230v25h40v40h25V350h40V325H295V285H270Z" transform="translate(-24.61 -24.61)"/></g></svg>